<svg width="152" height="152" viewBox="0 0 152 152" fill="none" xmlns="http://www.w3.org/2000/svg">
<circle cx="76" cy="76" r="76" fill="url(#paint0_radial_3693_296)"/>
<path d="M76.5 32.1875C52.5814 32.1875 33.1875 51.5814 33.1875 75.5C33.1875 99.4186 52.5814 118.812 76.5 118.812C100.419 118.812 119.812 99.4186 119.812 75.5C119.812 51.5814 100.419 32.1875 76.5 32.1875ZM76.5 111.465C56.642 111.465 40.5352 95.358 40.5352 75.5C40.5352 55.642 56.642 39.5352 76.5 39.5352C96.358 39.5352 112.465 55.642 112.465 75.5C112.465 95.358 96.358 111.465 76.5 111.465Z" fill="white"/>
<path d="M96.5514 74.2527L67.9245 53.4666C67.6949 53.2983 67.4231 53.1971 67.1394 53.1742C66.8556 53.1513 66.5711 53.2076 66.3175 53.3369C66.0638 53.4662 65.8511 53.6634 65.703 53.9065C65.5549 54.1496 65.4772 54.4291 65.4785 54.7138V96.286C65.4785 97.5526 66.9094 98.268 67.9245 97.5332L96.5514 76.7471C96.749 76.6047 96.91 76.4173 97.021 76.2005C97.132 75.9836 97.1899 75.7435 97.1899 75.4999C97.1899 75.2563 97.132 75.0162 97.021 74.7993C96.91 74.5825 96.749 74.3952 96.5514 74.2527ZM71.6467 87.2078V63.792L87.7632 75.4999L71.6467 87.2078Z" fill="white"/>
<defs>
<radialGradient id="paint0_radial_3693_296" cx="0" cy="0" r="1" gradientUnits="userSpaceOnUse" gradientTransform="translate(76 76) rotate(90) scale(76)">
<stop stop-color="#BD7048"/>
<stop offset="0.0001" stop-color="#BD7048" stop-opacity="0"/>
<stop offset="1" stop-color="#BD7048"/>
</radialGradient>
</defs>
</svg>
