<svg width="38" height="34" viewBox="0 0 38 34" fill="none" xmlns="http://www.w3.org/2000/svg">
<g clip-path="url(#clip0_2_75)">
<path d="M37.6055 12.7031H26.6055C26.4164 12.7031 26.2617 12.8578 26.2617 13.0469V15.1094C26.2617 15.2984 26.4164 15.4531 26.6055 15.4531H37.6055C37.7945 15.4531 37.9492 15.2984 37.9492 15.1094V13.0469C37.9492 12.8578 37.7945 12.7031 37.6055 12.7031ZM31.8476 18.5469H26.6055C26.4164 18.5469 26.2617 18.7016 26.2617 18.8906V20.9531C26.2617 21.1422 26.4164 21.2969 26.6055 21.2969H31.8476C32.0367 21.2969 32.1914 21.1422 32.1914 20.9531V18.8906C32.1914 18.7016 32.0367 18.5469 31.8476 18.5469ZM17.509 8.85742H15.6484C15.382 8.85742 15.1672 9.07227 15.1672 9.33867V19.9949C15.1672 20.1496 15.2402 20.2914 15.3648 20.3816L21.7629 25.048C21.9777 25.2027 22.2785 25.1598 22.4332 24.9449L23.5375 23.4367V23.4324C23.6922 23.2176 23.6449 22.9168 23.4301 22.7621L17.9859 18.8262V9.33867C17.9902 9.07227 17.7711 8.85742 17.509 8.85742Z" fill="#BD7048"/>
<path d="M31.5813 23.9566H29.0977C28.8571 23.9566 28.6293 24.0812 28.5004 24.2875C27.9547 25.1512 27.3188 25.9504 26.5883 26.6809C25.3293 27.9398 23.8641 28.9281 22.2356 29.6156C20.5469 30.3289 18.7551 30.6898 16.9074 30.6898C15.0555 30.6898 13.2637 30.3289 11.5793 29.6156C9.95081 28.9281 8.48558 27.9398 7.22659 26.6809C5.96761 25.4219 4.97933 23.9566 4.29183 22.3281C3.57854 20.6437 3.21761 18.8519 3.21761 17C3.21761 15.148 3.57854 13.3605 4.29183 11.6719C4.97933 10.0434 5.96761 8.57813 7.22659 7.31914C8.48558 6.06016 9.95081 5.07188 11.5793 4.38438C13.2637 3.6711 15.0598 3.31016 16.9074 3.31016C18.7594 3.31016 20.5512 3.6711 22.2356 4.38438C23.8641 5.07188 25.3293 6.06016 26.5883 7.31914C27.3188 8.04961 27.9547 8.84883 28.5004 9.7125C28.6293 9.91875 28.8571 10.0434 29.0977 10.0434H31.5813C31.8778 10.0434 32.0668 9.73398 31.9336 9.47188C29.1321 3.89883 23.4516 0.276567 17.1094 0.20352C7.82386 0.0875046 0.110967 7.68867 0.0937794 16.9656C0.0765919 26.2598 7.60901 33.8008 16.9032 33.8008C23.327 33.8008 29.102 30.1656 31.9336 24.5281C32.0668 24.266 31.8735 23.9566 31.5813 23.9566Z" fill="#BD7048"/>
</g>
<defs>
<clipPath id="clip0_2_75">
<rect width="38" height="34" fill="white"/>
</clipPath>
</defs>
</svg>
