<svg width="31" height="31" viewBox="0 0 31 31" fill="none" xmlns="http://www.w3.org/2000/svg">
<g clip-path="url(#clip0_2_83)">
<path d="M12.495 21.0491C12.6071 21.2056 12.7549 21.3331 12.9261 21.421C13.0973 21.509 13.2871 21.5549 13.4795 21.5549C13.672 21.5549 13.8617 21.509 14.033 21.421C14.2042 21.3331 14.352 21.2056 14.4641 21.0491L22.485 9.92803C22.6297 9.72617 22.485 9.44434 22.2374 9.44434H20.4512C20.0627 9.44434 19.6933 9.63096 19.4647 9.95088L13.4814 18.2536L10.7697 14.4907C10.5412 14.1746 10.1756 13.9842 9.7833 13.9842H7.99707C7.74951 13.9842 7.60479 14.266 7.74951 14.4679L12.495 21.0491Z" fill="#BD7048"/>
<path d="M29.5156 0.265625H1.48438C0.810254 0.265625 0.265625 0.810254 0.265625 1.48438V29.5156C0.265625 30.1897 0.810254 30.7344 1.48438 30.7344H29.5156C30.1897 30.7344 30.7344 30.1897 30.7344 29.5156V1.48438C30.7344 0.810254 30.1897 0.265625 29.5156 0.265625ZM27.9922 27.9922H3.00781V3.00781H27.9922V27.9922Z" fill="#BD7048"/>
</g>
<defs>
<clipPath id="clip0_2_83">
<rect width="31" height="31" fill="white"/>
</clipPath>
</defs>
</svg>
