<svg width="30" height="33" viewBox="0 0 30 33" fill="none" xmlns="http://www.w3.org/2000/svg">
<g clip-path="url(#clip0_2_81)">
<path d="M14.3879 1.34425C14.5891 1.09244 14.8383 0.883045 15.121 0.728188C15.4037 0.573331 15.7143 0.476087 16.0349 0.442083C16.3554 0.408079 16.6795 0.437991 16.9884 0.530088C17.2973 0.622185 17.5849 0.774638 17.8345 0.978622L25.7856 7.47212C26.2229 7.82914 26.5227 8.32687 26.6338 8.88033C26.745 9.43379 26.6605 10.0087 26.395 10.5068C25.6998 10.2944 24.9769 10.1867 24.25 10.1875H23.5187L24.2451 9.35875L20.0575 5.93893L16.6036 10.1899H13.4616L18.1684 4.39843L16.2916 2.86525L10.4464 10.1875H7.32644L14.3879 1.34425ZM20.5938 22.375C20.2705 22.375 19.9605 22.5034 19.732 22.732C19.5034 22.9605 19.375 23.2705 19.375 23.5937C19.375 23.917 19.5034 24.227 19.732 24.4555C19.9605 24.6841 20.2705 24.8125 20.5938 24.8125H23.0312C23.3545 24.8125 23.6645 24.6841 23.893 24.4555C24.1216 24.227 24.25 23.917 24.25 23.5937C24.25 23.2705 24.1216 22.9605 23.893 22.732C23.6645 22.5034 23.3545 22.375 23.0312 22.375H20.5938ZM2.3125 11.4062C2.3125 11.083 2.4409 10.773 2.66946 10.5445C2.89802 10.3159 3.20802 10.1875 3.53125 10.1875H4.89138L6.82919 7.75H3.53125C2.56155 7.75 1.63157 8.13521 0.945891 8.82089C0.260211 9.50657 -0.125 10.4365 -0.125 11.4062V26.0312C-0.125 27.6474 0.517018 29.1974 1.65982 30.3402C2.80262 31.483 4.35259 32.125 5.96875 32.125H24.25C25.5429 32.125 26.7829 31.6114 27.6971 30.6971C28.6114 29.7829 29.125 28.5429 29.125 27.25V17.5C29.125 16.2071 28.6114 14.9671 27.6971 14.0529C26.7829 13.1386 25.5429 12.625 24.25 12.625H3.53125C3.20802 12.625 2.89802 12.4966 2.66946 12.268C2.4409 12.0395 2.3125 11.7295 2.3125 11.4062ZM2.3125 26.0312V14.8553C2.69275 14.9894 3.10469 15.0625 3.53125 15.0625H24.25C24.8965 15.0625 25.5165 15.3193 25.9736 15.7764C26.4307 16.2335 26.6875 16.8535 26.6875 17.5V27.25C26.6875 27.8965 26.4307 28.5164 25.9736 28.9736C25.5165 29.4307 24.8965 29.6875 24.25 29.6875H5.96875C4.99905 29.6875 4.06907 29.3023 3.38339 28.6166C2.69771 27.9309 2.3125 27.0009 2.3125 26.0312Z" fill="#BD7048"/>
</g>
<defs>
<clipPath id="clip0_2_81">
<rect width="30" height="33" fill="white"/>
</clipPath>
</defs>
</svg>
